<svg version="1.1" id="Layer_1" xmlns="http://www.w3.org/2000/svg" xmlns:xlink="http://www.w3.org/1999/xlink" x="0px" y="0px"
	 width="100%" viewBox="0 0 1024 1024" enable-background="new 0 0 1024 1024" xml:space="preserve">
<path fill="#000000" opacity="1.000000" stroke="none" 
	d="
M583.590759,327.489075 
	C608.978271,376.095886 634.141541,424.402100 659.433411,472.640839 
	C691.455750,533.716431 723.541992,594.758667 755.681274,655.772827 
	C772.838928,688.345520 790.173950,720.824890 807.391418,753.366089 
	C808.138672,754.778320 809.399292,756.077759 809.040833,758.006348 
	C807.421143,759.615051 805.305298,759.075378 803.403198,759.076843 
	C742.578369,759.123901 681.753479,759.108398 620.928711,759.180420 
	C617.692505,759.184265 615.801758,758.201843 614.416931,755.095337 
	C589.666199,699.571167 564.862732,644.070251 539.869995,588.654846 
	C537.903015,584.293518 538.785278,582.372253 542.633484,580.005615 
	C560.837646,568.810181 570.121216,548.076416 566.574585,527.368347 
	C563.088989,507.016388 547.304321,490.605194 526.697998,485.908997 
	C497.021942,479.145752 467.257996,500.326080 464.260010,530.404663 
	C462.074005,552.337219 471.103180,568.876404 489.209290,580.646790 
	C492.689514,582.909241 493.062775,584.598999 491.458679,588.162842 
	C469.310944,637.369751 447.290863,686.634033 425.249573,735.888794 
	C422.732605,741.513428 420.010559,747.066650 417.874542,752.834839 
	C416.109406,757.601501 413.338715,759.255554 408.171448,759.238403 
	C352.346344,759.052917 296.520447,759.137817 240.694839,759.089172 
	C234.603760,759.083862 228.464951,759.591248 220.784058,758.433044 
	C320.337708,571.747131 418.002533,385.247711 514.855835,198.323288 
	C515.379639,198.249908 515.903381,198.176514 516.427185,198.103119 
	C538.759338,241.121582 561.091492,284.140045 583.590759,327.489075 
z"/>
</svg>